<?xml version="1.0" standalone="no"?>
<!DOCTYPE svg PUBLIC "-//W3C//DTD SVG 20010904//EN"
 "http://www.w3.org/TR/2001/REC-SVG-20010904/DTD/svg10.dtd">
<svg version="1.0" xmlns="http://www.w3.org/2000/svg"
 width="1080.000000pt" height="1080.000000pt" viewBox="0 0 1080.000000 1080.000000"
 preserveAspectRatio="xMidYMid meet">

<g transform="translate(0.000000,1080.000000) scale(0.100000,-0.100000)"
fill="#000000" stroke="none">
<path d="M2420 5395 l0 -395 60 0 c43 0 60 4 60 13 0 7 6 22 14 32 13 18 15
18 45 -7 97 -83 250 -52 308 63 51 97 51 260 1 366 -55 117 -213 148 -305 60
l-33 -31 0 147 0 147 -75 0 -75 0 0 -395z m323 35 c53 -42 61 -202 14 -272
-20 -29 -29 -33 -71 -36 -39 -3 -53 1 -72 19 -60 57 -58 250 3 297 26 19 97
15 126 -8z"/>
<path d="M3566 5769 c-18 -14 -26 -30 -26 -53 0 -48 19 -67 72 -73 40 -5 50
-2 72 20 73 73 -36 171 -118 106z"/>
<path d="M4480 5395 l0 -395 75 0 75 0 0 395 0 395 -75 0 -75 0 0 -395z"/>
<path d="M1269 5737 c-63 -18 -130 -59 -169 -104 -120 -136 -114 -428 11 -552
93 -92 276 -116 472 -61 l37 11 0 194 0 195 -145 0 -145 0 0 -65 0 -64 68 -3
67 -3 3 -76 3 -76 -32 -7 c-159 -31 -259 54 -261 225 0 41 5 93 11 117 15 53
64 110 116 133 52 24 144 24 212 0 l52 -18 26 60 c29 66 28 68 -35 88 -55 17
-238 21 -291 6z"/>
<path d="M5080 5370 l0 -370 225 0 225 0 0 65 0 65 -150 0 -150 0 0 305 0 305
-75 0 -75 0 0 -370z"/>
<path d="M1915 5570 c-22 -6 -57 -17 -77 -26 l-37 -17 25 -48 c13 -27 28 -49
33 -49 5 0 28 7 51 15 23 8 67 15 96 15 66 0 94 -22 94 -75 l0 -35 -73 0 c-40
0 -99 -7 -132 -15 -111 -29 -152 -84 -143 -192 8 -88 62 -143 150 -151 72 -6
132 12 178 54 l39 35 12 -40 12 -41 54 0 54 0 -3 233 c-3 227 -4 233 -27 266
-34 47 -100 74 -191 77 -41 2 -93 -1 -115 -6z m183 -362 c-6 -60 -36 -93 -92
-104 -54 -10 -90 13 -94 59 -5 63 41 96 137 97 l54 0 -5 -52z"/>
<path d="M3334 5569 c-17 -5 -50 -27 -73 -49 -22 -22 -43 -40 -45 -40 -2 0 -9
20 -15 45 l-12 46 -57 -3 -57 -3 -3 -282 -2 -283 80 0 80 0 0 168 c0 148 2
171 20 199 25 42 68 63 128 63 49 0 49 0 56 38 3 20 6 54 6 75 0 36 -1 37 -37
36 -21 0 -52 -5 -69 -10z"/>
<path d="M4025 5571 c-117 -29 -185 -120 -193 -262 -8 -141 41 -239 146 -291
40 -20 62 -23 152 -22 64 0 120 6 145 15 l40 14 3 61 3 61 -53 -18 c-66 -23
-178 -25 -218 -4 -33 17 -60 61 -60 100 l0 25 181 0 182 0 -5 83 c-5 99 -30
154 -89 196 -59 44 -156 61 -234 42z m125 -116 c31 -16 43 -33 54 -77 l6 -28
-110 0 c-60 0 -110 4 -110 9 0 29 27 76 54 92 37 23 67 24 106 4z"/>
<path d="M5795 5563 c-73 -26 -107 -55 -140 -115 -38 -69 -47 -197 -20 -278
34 -102 121 -169 230 -178 125 -10 231 48 275 150 19 42 23 70 23 138 -1 138
-43 219 -139 266 -71 35 -160 41 -229 17z m167 -133 c57 -44 63 -223 10 -283
-26 -29 -86 -40 -127 -23 -46 20 -67 69 -68 156 -1 77 16 134 46 155 31 22
109 19 139 -5z"/>
<path d="M7225 5561 c-22 -10 -55 -34 -72 -54 l-32 -37 -11 38 c-5 20 -10 43
-10 50 0 8 -19 12 -60 12 l-60 0 0 -285 0 -285 74 0 74 0 4 168 c4 188 12 217
72 246 19 9 56 16 84 16 l50 0 4 68 c3 37 3 70 1 75 -8 13 -78 7 -118 -12z"/>
<path d="M7600 5567 c-63 -18 -112 -57 -146 -119 -27 -50 -29 -60 -29 -163 0
-121 13 -160 71 -219 54 -55 107 -71 224 -70 68 0 119 6 145 16 l40 15 3 61 3
61 -58 -21 c-79 -27 -202 -23 -233 8 -22 22 -51 94 -43 106 2 5 85 8 184 8
l179 0 0 58 c0 117 -44 203 -123 241 -55 27 -157 35 -217 18z m139 -111 c28
-15 51 -53 51 -86 0 -19 -8 -20 -106 -20 l-106 0 6 32 c14 73 88 108 155 74z"/>
<path d="M8345 5576 c-5 -2 -22 -7 -37 -10 -15 -4 -44 -20 -63 -37 -40 -35
-39 -35 -52 6 -9 28 -13 30 -66 33 l-57 3 0 -286 0 -285 74 0 74 0 4 183 c5
238 21 272 125 265 37 -2 50 -9 67 -31 19 -26 21 -44 24 -223 l4 -194 75 0 74
0 -3 228 c-3 255 -7 271 -76 317 -35 23 -138 42 -167 31z"/>
<path d="M8894 5562 c-70 -24 -100 -45 -128 -91 -34 -53 -46 -104 -46 -192 0
-143 54 -241 147 -269 42 -13 42 -13 28 -41 -21 -40 -19 -46 20 -59 33 -11 53
-40 40 -60 -3 -5 -28 -10 -56 -10 l-49 0 0 -39 c0 -44 10 -51 76 -51 67 0 124
27 140 66 24 56 18 83 -26 125 -22 21 -40 40 -40 42 0 2 20 7 45 10 25 4 59
14 75 22 29 15 30 19 30 80 l0 64 -42 -19 c-27 -12 -66 -20 -104 -20 -53 0
-63 3 -87 28 -63 65 -54 238 15 286 28 20 99 20 153 1 21 -8 40 -13 41 -12 1
1 12 26 24 56 13 34 17 58 11 64 -14 14 -120 37 -171 37 -25 -1 -68 -9 -96
-18z"/>
<path d="M9447 5570 c-158 -40 -233 -204 -180 -394 35 -125 148 -196 290 -183
74 7 129 33 171 82 53 59 65 99 66 205 1 104 -15 155 -67 216 -53 63 -185 98
-280 74z m142 -136 c34 -24 51 -74 51 -148 0 -131 -55 -191 -152 -166 -53 15
-77 66 -78 163 0 114 36 167 115 167 22 0 51 -7 64 -16z"/>
<path d="M3550 5285 l0 -285 75 0 75 0 0 285 0 285 -75 0 -75 0 0 -285z"/>
<path d="M6294 5555 c-3 -8 -4 -108 -2 -222 4 -236 13 -270 85 -314 53 -34
169 -34 231 -1 24 13 45 29 49 37 9 25 22 17 31 -17 8 -32 10 -33 70 -36 l62
-3 0 286 0 285 -80 0 -80 0 0 -167 c0 -184 -8 -228 -45 -263 -35 -33 -106 -34
-137 -2 -22 22 -23 30 -26 227 l-3 205 -75 0 c-57 0 -76 -4 -80 -15z"/>
</g>
</svg>
